<svg xmlns="http://www.w3.org/2000/svg" version="1.1" xmlns:xlink="http://www.w3.org/1999/xlink" xmlns:svgjs="http://svgjs.com/svgjs" width="512" height="512" x="0" y="0" viewBox="0 0 512 512.00039" style="enable-background:new 0 0 512 512" xml:space="preserve" class=""><g><path xmlns="http://www.w3.org/2000/svg" d="m301.238281 218.464844c-.851562 0-1.703125-.027344-2.527343-.078125-8.820313-.53125-19.742188-5.496094-22.882813-15.144531-1.679687-5.160157-.914063-10.898438-.058594-15.320313 4.867188-25.117187 20.945313-47.839844 43.007813-60.785156 7.699218-4.511719 14.445312-6.707031 20.625-6.707031.484375 0 .960937.011718 1.4375.046874 6.804687.363282 14.859375 4.554688 17.027344 11.855469 1.820312 6.09375-.597657 12.757813-3.460938 19.621094l-6.898438 16.59375c-4.730468 11.382813-9.460937 22.753906-14.199218 34.125l-.246094.597656c-2.460938 5.910157-3.476562 8.351563-9.03125 10.425781-8.601562 3.207032-16.058594 4.769532-22.792969 4.769532zm0 0" fill="#f0f2fa" data-original="#f0f2fa"></path><path xmlns="http://www.w3.org/2000/svg" d="m290.574219 383.671875c-15.429688 0-30.480469-7.308594-39.273438-19.074219-9.820312-13.121094-12.621093-32.484375-7.492187-51.800781 2.796875-10.507813 7.765625-21.441406 14.761718-32.496094 5.835938-9.222656 11.757813-12.652343 21.847657-12.652343 2.496093 0 5.328125.1875 9.460937.621093 17.101563 1.796875 38.207032 6.019531 49.722656 22.882813 4.582032 6.703125 7.332032 15.5 7.957032 25.433594 1.039062 16.457031-3.878906 32.921874-13.496094 45.167968-10.117188 12.894532-25.464844 21.066406-41.0625 21.855469-.804688.039063-1.617188.0625-2.425781.0625zm0 0" fill="#f0f2fa" data-original="#f0f2fa"></path><path xmlns="http://www.w3.org/2000/svg" d="m232.320312 180.535156c-3.550781 0-6.886718-.691406-9.910156-2.050781l-1.03125-.460937-.132812-1.121094c-.777344-6.402344-3.121094-12.84375-6.785156-18.621094l-.679688-1.070312.679688-1.070313c.195312-.308594.402343-.800781.285156-1.398437l-.019532-.101563c-1.816406-9.675781-3.695312-19.679687-3.042968-29.570313.722656-10.867187 4.644531-20.109374 11.039062-26.027343 4.488282-4.140625 10.5-6.515625 16.496094-6.515625 3.425781 0 6.652344.808594 9.332031 2.339844 6.164063 3.519531 10.414063 10.527343 13.386719 22.054687 3.074219 11.867187 3.902344 22.027344 2.539062 31.058594-1.664062 10.921875-6.886718 20.515625-14.324218 26.328125-5.148438 4.015625-11.484375 6.226562-17.832032 6.226562zm0 0" fill="#f0f2fa" data-original="#f0f2fa"></path><path xmlns="http://www.w3.org/2000/svg" d="m188.300781 213.789062c-5.507812 0-10.804687-1.648437-14.90625-4.644531-.101562-.066406-.222656-.128906-.347656-.1875l-.722656-.347656-.285157-.75c-.746093-1.972656-1.695312-4.007813-2.8125-6.046875-3.398437-6.222656-7.734374-11.304688-12.539062-14.699219l-1.019531-.71875.214843-1.316406c.589844-8.359375 1.265626-17.816406 4.703126-26.074219 3.6875-8.855468 10.363281-15.132812 17.863281-16.796875 1.359375-.300781 2.792969-.453125 4.25-.453125 6.75 0 13.949219 3.128906 20.277343 8.808594 8.820313 7.898438 14.195313 18.605469 14.742188 29.375.574219 11.46875-4.722656 22.820312-13.496094 28.925781-4.5625 3.175781-10.21875 4.925781-15.921875 4.925781zm0 0" fill="#f0f2fa" data-original="#f0f2fa"></path><path xmlns="http://www.w3.org/2000/svg" d="m138.722656 238.023438c-1.457031 0-2.910156-.027344-4.363281-.0625l-1.304687-.03125-.492188-1.210938c-2.828125-6.894531-8.90625-13.027344-15.859375-16l-1.621094-.691406.484375-1.695313c1.933594-6.761719 4.125-14.421875 8.359375-20.769531 4.578125-6.851562 11.222657-11.136719 17.773438-11.46875.289062-.015625.574219-.019531.859375-.019531 10.136718 0 18.699218 9.0625 23.335937 17.546875 3.808594 6.984375 5.097657 12.832031 3.945313 17.886718-1.734375 7.605469-8.878906 12.453126-14.988282 14.453126-5.609374 1.828124-11.566406 2.0625-16.128906 2.0625zm0 0" fill="#f0f2fa" data-original="#f0f2fa"></path><path xmlns="http://www.w3.org/2000/svg" d="m114.429688 271.921875c-5.703126-.011719-10.566407-2.78125-14.457032-8.226563-5.867187-8.246093-8.085937-21.625-5.054687-30.464843 3.011719-8.769531 8.703125-10.632813 12.945312-10.648438 8.703125 0 18.359375 7.433594 21.59375 16.574219 2.699219 7.632812 2.890625 15.132812.535157 21.109375-2.65625 6.753906-9.1875 11.65625-15.53125 11.65625zm0 0" fill="#f0f2fa" data-original="#f0f2fa"></path><path xmlns="http://www.w3.org/2000/svg" d="m12.925781 350.652344c21.222657-33.09375 48.644531-63.515625 79.308594-87.976563l1.832031-1.460937 1.15625 2.039062c.554688.976563 1.113282 1.863282 1.660156 2.640625 4.5625 6.410157 10.628907 9.808594 17.542969 9.828125 8.007813 0 15.847657-5.785156 19.105469-14.0625 2.003906-5.097656 2.421875-11.148437 1.207031-17.492187l-.464843-2.414063 3.121093.050782c.402344.007812.804688.015624 1.21875.015624 4.894531 0 11.296875-.257812 17.417969-2.25 9.042969-2.953124 15.753906-9.550781 17.511719-17.214843.367187-1.644531.535156-3.367188.488281-5.125l-.078125-3.054688 2.832031 1.152344c3.542969 1.441406 7.527344 2.203125 11.515625 2.203125 6.519531 0 12.945313-1.972656 18.085938-5.550781 8.460937-5.882813 14.074219-16.019531 15.019531-27.121094l.210938-2.453125 2.359374.707031c2.640626.792969 5.425782 1.195313 8.273438 1.195313 7.25 0 14.433594-2.488282 20.230469-7.015625 8.203125-6.398438 13.9375-16.875 15.742187-28.742188.734375-4.820312.878906-10.023437.425782-15.464843l-.101563-1.207032 1.023437-.648437c11.261719-7.125 22.097657-13.867188 32.578126-20.382813l6.492187-4.039062c10.257813-6.378906 20.867187-12.976563 31.878906-19.949219 5.726563-3.621094 10.914063-6.617187 16.433594-6.617187.503906 0 1.007813.027343 1.503906.078124 6.203125.644532 11.8125 5.378907 17.136719 14.476563l.894531 1.527344-28.425781 21.761719-.988281-.304688c-1.972657-.617188-4.011719-.988281-6.058594-1.105469-.527344-.027343-1.0625-.042969-1.605469-.042969-6.886718 0-14.265625 2.367188-22.558594 7.230469-18.039062 10.582031-32.277343 27.34375-40.089843 47.199219l-.175781.441406-.355469.316406c-79.527344 70.972657-167.234375 132.097657-260.683594 181.675782l-6.738281 3.574218zm0 0" fill="#f7b36f" data-original="#f7b36f" class=""></path><path xmlns="http://www.w3.org/2000/svg" d="m217.800781 458.25c-8.910156 0-17.683593-1.011719-26.0625-3.011719l-5.765625-1.375 67.417969-29.851562c.46875-.203125.835937-.597657 1.015625-1.082031.171875-.464844.144531-1.007813-.074219-1.472657l-8.308593-17.433593 1.171874-.996094c4.464844-3.792969 6.171876-10.289063 4.0625-15.449219-2.003906-4.898437-6.128906-8.027344-11.320312-8.585937-.558594-.0625-1.125-.09375-1.683594-.09375-4.839844 0-9.414062 2.277343-11.9375 5.945312-2.648437 3.851562-2.722656 8.675781-.214844 13.589844 1.148438 2.261718 2.996094 4.179687 5.347657 5.550781 2.304687 1.339844 4.894531 2.046875 7.480469 2.046875.671874 0 1.382812-.0625 2.164062-.183594l1.476562-.234375 7.5 15.722657-66.613281 29.484374c-.242187.105469-.460937.273438-.644531.496094l-.898438 1.070313-1.316406-.476563c-13.382812-4.851562-25.113281-12.449218-33.925781-21.980468-3.980469-4.300782-9.902344-11.421876-15.355469-23.546876l-.878906-1.957031 30.6875-11.296875 14.703125 32.9375c.300781.6875.980469 1.125 1.730469 1.125.265625 0 .527344-.058594.78125-.167968.945312-.425782 1.375-1.554688.949218-2.515626l-15.417968-34.550781c-.304688-.683593-.988282-1.125-1.734375-1.125-.222657 0-.445313.039063-.65625.117188l-32.476563 11.960937-.691406-1.875c-2.851562-7.734375-5.226562-16.515625-7.046875-26.101562l-.300781-1.589844 57.386718-24.101562 10.054688 25.90625-1.488281.855468c-3.117188 1.792969-5.539063 4.496094-6.828125 7.621094-2.390625 5.824219-.476563 12.96875 4.550781 16.984375 2.679687 2.144531 6.1875 3.320313 9.882813 3.320313 2.714843 0 5.363281-.648438 7.648437-1.878907 6.210937-3.335937 9.710937-10.882812 8.144531-17.550781-1.457031-6.164062-6.421875-10.316406-12.960937-10.835938-.449219-.035156-.902344-.050781-1.351563-.050781-.792968 0-1.613281.054688-2.433594.160157l-1.554687.203124-10.828125-27.933593c-.1875-.46875-.566406-.863281-1.03125-1.058594-.238281-.101563-.484375-.148437-.738281-.148437-.253907 0-.503907.046874-.734375.148437l-58.386719 24.523437-.390625-2.53125c-.503906-3.253906-.953125-6.609374-1.371094-10.257812-.363281-3.191406-.578125-5.648438-.691406-7.96875l-.066406-1.382812 50.558594-21.941407c.957031-.417969 1.402343-1.539062.984374-2.496093-.304687-.699219-.992187-1.148438-1.75-1.148438-.257812 0-.515624.054688-.757812.160156l-49.128906 21.332032.390625-3.4375c.46875-4.132813 1.484375-7.628907 3.101562-10.679688 4.027344-7.574219 11.546875-12.433594 19.550781-17.148438 38.632813-22.800781 79.972657-41.210937 122.875-54.722656l2.269532-.714844.3125 2.355469c.25 1.863281.554687 3.554688.925781 5.175781.125.511719.429687.851563.667969 1.046876l2.375 1.96875-2.761719 1.367187c-4.484375 2.21875-8.417969 6.070313-12.027344 11.785156-7.226562 11.417969-12.34375 22.707031-15.21875 33.554688-.871093 3.25-1.535156 6.652343-1.980469 10.128906l-.140624 1.105469-28.410157 13.011718c-1.910156.878907-2.738281.992188-3.242187.992188h-.960938l-.601562-.753906c-.328125-.40625-.609375-.976563-.984375-1.824219l-9.695313-21.996094c-.300781-.6875-.984375-1.128906-1.734375-1.128906-.261719 0-.519531.054687-.765625.160156-.464844.203125-.816406.574219-1 1.042969-.1875.476562-.175781.996094.03125 1.460938l9.671875 21.941406c.542969 1.242187 1.363281 3.109375 3.140625 4.152344.839844.496093 1.792969.746093 2.839844.746093 1.984375 0 3.867188-.871093 4.882812-1.339843l26.359376-12.078126-.042969 3.164063c-.195313 13.855469 3.617187 26.734375 10.742187 36.265625 9.652344 12.894531 25.4375 20.597656 42.21875 20.597656.984375 0 1.875-.023437 2.722656-.066406 16.058594-.816406 32.078126-9.078125 42.855469-22.097656l1.824219-2.207032 1.441406 2.472657c8.136719 13.925781 3.738282 32.027343-3.789062 42.953125-10.085938 14.648437-26.511719 23.554687-41.25 30.332031-.1875.089844-2.621094 1.175781-2.621094 1.175781l-16.945312-34.082031c-.328126-.652344-.980469-1.058594-1.710938-1.058594-.289062 0-.574219.066407-.839844.199219-.933594.464844-1.316406 1.609375-.847656 2.546875l16.863281 33.933594-1.957031.828125c-25.121094 10.667968-47.476562 15.851562-68.339844 15.851562h-.078125zm0 0" fill="#d8deec" data-original="#d8deec"></path><path xmlns="http://www.w3.org/2000/svg" d="m238.917969 402.242188c-3.957031 0-7.75-2.226563-9.4375-5.542969-.929688-1.808594-1.398438-3.574219-1.398438-5.238281 0-1.636719.457031-3.136719 1.359375-4.457032 1.800782-2.617187 5.285156-4.304687 8.878906-4.304687.40625 0 .8125.019531 1.214844.0625 3.761719.40625 6.757813 2.6875 8.21875 6.261719 1.878906 4.609374-.644531 10.582031-5.300781 12.53125-1.089844.457031-2.277344.6875-3.535156.6875zm0 0" fill="#d8deec" data-original="#d8deec"></path><path xmlns="http://www.w3.org/2000/svg" d="m194.507812 398.148438c-2.816406 0-5.480468-.886719-7.496093-2.492188-3.679688-2.960938-5.144531-8.371094-3.410157-12.585938 2.179688-5.296874 7.792969-7.664062 12.390626-7.664062.355468 0 .710937.011719 1.058593.042969 4.917969.40625 8.492188 3.371093 9.566407 7.921875 1.167968 4.976562-1.574219 10.835937-6.242188 13.34375-1.746094.9375-3.773438 1.433594-5.867188 1.433594zm0 0" fill="#d8deec" data-original="#d8deec"></path><path xmlns="http://www.w3.org/2000/svg" d="m473.042969 169.835938c-5.355469 0-10.699219-2.152344-14.300781-5.761719-5.011719-5.015625-7.453126-11.109375-7.453126-18.632813 0-7.84375 2.667969-16.148437 5.246094-24.179687l.050782-.152344c.453124-1.375.878906-2.726563 1.296874-4.050781 1.511719-4.855469 2.648438-9.804688 3.75-14.589844l.070313-.304688c1.265625-5.578124 2.578125-11.347656 4.488281-16.875l1.851563-5.367187 1.917969 5.34375c3.503906 9.738281 6.566406 19.8125 9.53125 29.554687l.089843.300782c1.894531 6.238281 3.824219 12.605468 5.839844 18.777344 1.726563 5.292968 3.511719 10.761718 3.804687 16.355468.308594 5.917969-1.3125 11.308594-4.449218 14.796875-2.679688 2.96875-6.667969 4.664063-11.226563 4.78125-.167969.003907-.339843.003907-.507812.003907zm0 0" fill="#ed6d66" data-original="#ed6d66"></path><path xmlns="http://www.w3.org/2000/svg" d="m438.652344 79.953125c-5.277344-1.5-9.671875-5.867187-11.191406-11.125-1.5625-5.375-.109376-11.503906 3.691406-15.613281.789062-.855469 1.679687-1.628906 2.621094-2.449219l.09375-.082031c1.183593-1.035156 2.410156-2.101563 3.523437-3.402344 2.640625-3.101562 3.550781-6.746094 2.425781-9.75-1.78125-4.769531-7.085937-5.285156-9.285156-5.285156-1.855469 0-3.78125.324218-5.574219.9375-.808593.277344-1.628906.589844-2.453125.902344l-.304687.113281c-2.660157 1.023437-5.152344 1.980469-7.535157 1.980469-.800781 0-1.554687-.113282-2.246093-.335938-3.828125-1.238281-5.71875-6.105469-5.339844-10.09375.417969-4.183594 2.679687-8.1875 4.765625-11.609375l.464844-.765625.878906-.160156c7.824219-1.441406 15.625-2.230469 23.167969-2.988282l41.859375-4.195312-.523438 2.648438c-5.378906 27.21875-15.429687 48.773437-29.867187 64.054687-2.351563 2.476563-4.824219 4.777344-7.359375 6.847656l-.808594.660157zm0 0" fill="#ed6d66" data-original="#ed6d66"></path><path xmlns="http://www.w3.org/2000/svg" d="m395.230469 96.578125c-5.085938 0-10.027344-.652344-14.683594-1.941406l-.796875-.21875-.410156-.71875c-6.105469-10.746094-12.808594-16.359375-20.484375-17.160157-.121094-.003906-.203125-.007812-.289063-.019531l-1.722656-.175781-.070312-1.730469c-.792969-19.347656 8.941406-38.8125 24.804687-49.585937 5.976563-4.058594 12.964844-7.160156 21.359375-9.484375l4.078125-1.125-1.714844 3.867187c-1.117187 2.511719-1.765625 4.832032-1.988281 7.09375-.726562 7.328125 3.4375 12.625 7.933594 14.070313 1.109375.359375 2.234375.53125 3.441406.53125 3.074219 0 6.027344-1.136719 8.886719-2.234375.867187-.335938 1.742187-.667969 2.605469-.964844 1.382812-.472656 2.949218-.730469 4.421874-.730469 2.933594 0 4.992188 1.027344 5.65625 2.816407.753907 1.972656-.414062 4.375-1.761718 5.960937-.882813 1.023437-1.917969 1.933594-3.011719 2.894531l-.101563.089844c-1.058593.917969-2.074218 1.816406-3.015624 2.828125-4.6875 5.0625-6.476563 12.617187-4.554688 19.246094 1.394531 4.789062 4.726562 9.046875 9.144531 11.6875l2.773438 1.660156-2.722657 1.742187c-11.6875 7.480469-25.105468 11.601563-37.777343 11.601563zm0 0" fill="#f9d889" data-original="#f9d889"></path><g xmlns="http://www.w3.org/2000/svg" fill="#939baa"><path d="m335.722656 280.917969c-3.585937-3.234375-7.960937-6.058594-13.003906-8.394531l-1.820312-.84375.851562-1.816407c7.019531-14.980469 4.734375-33.773437-5.6875-46.761719l-1.910156-2.375 2.941406-.804687c2.585938-.707031 5.246094-1.5625 7.914062-2.546875l1.792969-.660156.742188 1.757812c4.609375 10.917969 8.617187 20.8125 10.96875 31.300782 2.472656 11.03125 2.636719 21.167968.496093 30.125l-.785156 3.273437zm0 0" fill="#939baa" data-original="#939baa"></path><path d="m315.664062 269.734375c-1.265624-.433594-2.328124-.773437-3.347656-1.074219l-.984375-.289062-.339843-.972656c-4.117188-11.851563-4.5-28.570313-.929688-40.652344l1.113281-3.773438 2.394531 3.121094c8.984376 11.730469 10.910157 29.011719 4.742188 42.191406v2.355469zm0 0" fill="#939baa" data-original="#939baa"></path><path d="m299.164062 503.835938c3.5625-19.773438 2.480469-40.429688-3.125-59.738282l-.476562-1.644531 1.554688-.726563c4.136718-1.925781 7.519531-3.613281 10.640624-5.304687l2.640626-1.429687 5.394531 53.15625c.542969 5.300781.816406 10.769531-2.277344 14.242187-2.871094 3.234375-7.855469 3.734375-12.355469 3.800781l-2.425781.03125zm0 0" fill="#939baa" data-original="#939baa"></path><path d="m303.695312 266.53125c-3.941406-.792969-8.042968-1.429688-12.1875-1.894531l-1.449218-.160157-.3125-1.546874c-.011719-.058594-.019532-.121094-.039063-.179688-4.417969-13.03125-3.0625-27.941406 3.617188-39.914062l.675781-1.210938 1.375.210938c1.132812.171874 2.152344.289062 3.117188.351562.949218.050781 1.851562.074219 2.726562.074219.980469 0 2.046875-.042969 3.460938-.136719l2.921874-.191406-.882812 2.792968c-3.605469 11.390626-3.875 26.835938-.691406 39.351563l.785156 3.082031zm0 0" fill="#939baa" data-original="#939baa"></path><path d="m280.640625 506.066406v-1.984375c0-.164062-.019531-.316406-.058594-.464843-2.082031-7.199219-2.0625-14.792969-2.042969-22.832032.023438-9.3125.039063-18.925781-3.621093-27.605468l-.8125-1.929688 1.960937-.726562c4.621094-1.703126 9.300782-3.585938 13.90625-5.585938l2.101563-.914062.621093 2.207031c5.222657 18.601562 6.136719 38.457031 2.652344 57.414062-.023437.121094-.03125.261719-.023437.378907l.148437 2.15625zm0 0" fill="#939baa" data-original="#939baa"></path><path d="m270.800781 262.074219c.070313-.28125.074219-.5625.011719-.835938-3.445312-14.855469-.503906-31.402343 7.863281-44.257812l1.121094-1.726563 1.691406 1.171875c1.972657 1.367188 4.1875 2.527344 6.585938 3.460938l2.0625.796875-1.003907 1.972656c-6.023437 11.839844-7.417968 25.957031-3.816406 38.730469l.753906 2.671875-2.773437-.132813c-1.011719-.046875-1.980469-.070312-2.882813-.070312-2.722656 0-5.101562.214843-7.269531.664062l-3.117187.640625zm0 0" fill="#939baa" data-original="#939baa"></path><path d="m250.242188 505.851562 2.265624-3.140624c9.089844-12.585938 11.5-29.976563 6.140626-44.300782l-.761719-2.035156 2.09375-.589844c2.742187-.769531 5.613281-1.652344 8.78125-2.703125l1.722656-.570312.734375 1.660156c3.5625 8.054687 3.542969 17.050781 3.523438 26.574219-.023438 7.527344-.042969 15.304687 1.90625 22.78125l.652343 2.523437zm0 0" fill="#939baa" data-original="#939baa"></path><path d="m266.980469 225.167969c-6.402344-7.601563-10.738281-17.167969-12.207031-26.9375-.023438-.148438-.082032-.320313-.191407-.546875l-.675781-1.390625 1.179688-1.003907c4.601562-3.914062 9.359374-8.023437 14.148437-12.222656l4.628906-4.058594-1.363281 6.003907c-.160156.71875-.304688 1.433593-.449219 2.148437-.949219 4.910156-1.78125 11.265625.171875 17.261719.8125 2.515625 2.113282 4.882813 3.871094 7.050781l.9375 1.15625-.839844 1.230469c-2.300781 3.371094-4.265625 7.003906-5.832031 10.789063l-1.257813 3.039062zm0 0" fill="#939baa" data-original="#939baa"></path><path d="m247.578125 254.136719c-.023437-.121094-.0625-.246094-.121094-.378907-5.957031-14.078124-8.621093-29.570312-7.703125-44.796874l.054688-.867188.667968-.554688c2.644532-2.1875 5.28125-4.371093 7.90625-6.578124l2.558594-2.148438.6875 3.265625c2.207032 10.492187 7.472656 20.511719 14.828125 28.210937.078125.078126.207031.179688.339844.265626l1.226563.785156-.367188 1.40625c-1.414062 5.421875-2.105469 10.953125-2.054688 16.4375l.011719 1.480468-1.414062.445313c-5.15625 1.609375-9.738281 3.097656-14.019531 4.542969l-2.171876.734375zm0 0" fill="#939baa" data-original="#939baa"></path><path d="m230.855469 505.710938.832031-2.589844c4.050781-12.648438 2.984375-26.792969-2.921875-38.796875l-1.28125-2.605469 2.890625-.269531c7.105469-.664063 14.5625-1.917969 22.164062-3.722657l2-.476562.417969 2.011719c.027344.128906.042969.234375.078125.335937 5.636719 14.835938 2.222656 32.722656-8.507812 44.460938-.117188.132812-.234375.324218-.335938.550781l-.527344 1.210937zm0 0" fill="#939baa" data-original="#939baa"></path><path d="m227.3125 261.136719c-.484375-11.242188-4.308594-22.457031-10.769531-31.578125l-1.324219-1.648438 1.582031-1.25c5.589844-4.414062 10.734375-8.535156 15.726563-12.601562l3.230468-2.628906.03125 4.164062c.109376 13.550781 2.929688 27.242188 8.152344 39.601562.058594.101563.105469.191407.144532.28125l.882812 1.980469-2.042969.71875c-4.199219 1.488281-8.542969 3.082031-12.902343 4.746094l-2.589844.988281zm0 0" fill="#939baa" data-original="#939baa"></path><path d="m209.253906 505.558594-.257812-1.683594c-.027344-.160156-.058594-.300781-.105469-.429688-4.429687-12.808593-5.773437-26.695312-3.890625-40.160156l.265625-1.886718 1.894531.171874c3.558594.316407 7.132813.480469 10.628906.480469 1.433594 0 2.792969-.03125 4.152344-.070312l1.183594-.03125.597656 1.015625c7.058594 11.976562 8.558594 26.953125 4.015625 40.058594-.058593.175781-.085937.390624-.085937.65625v2.015624zm0 0" fill="#939baa" data-original="#939baa"></path><path d="m203.539062 271.074219c-.019531-.109375-.035156-.21875-.074218-.328125-3.34375-9.4375-4.640625-19.703125-3.746094-29.683594l-.007812-.152344v-.988281l.785156-.597656c3.40625-2.609375 6.800781-5.222657 10.175781-7.859375l1.65625-1.292969 1.210937 1.71875c6.183594 8.789063 9.742188 19.535156 10.023438 30.257813.007812.273437.078125.546874.21875.824218l1.003906 1.960938-2.050781.808594c-5.394531 2.125-10.925781 4.40625-16.445313 6.777343l-2.265624.972657zm0 0" fill="#939baa" data-original="#939baa"></path><path d="m199.421875 505.492188c-5.867187-.042969-12.953125-.695313-15.636719-5.375-1.375-2.417969-1.382812-5.390626-1.253906-9.019532l1.210938-34.09375 2.460937.703125c4.257813 1.222657 8.75 2.207031 13.347656 2.929688l1.941407.304687-.269532 1.945313c-1.851562 13.351562-.644531 27.1875 3.503906 40.019531l.851563 2.640625zm0 0" fill="#939baa" data-original="#939baa"></path><path d="m182.851562 280.292969c-.957031-7.003907-3.734374-13.675781-8.039062-19.296875l-1.246094-1.628906 1.660156-1.203126c5.472657-3.972656 11.109376-8.140624 17.230469-12.742187l3.214844-2.414063-.011719 4.023438c-.03125 8.460938 1.429688 17.105469 4.226563 24.992188.058593.15625.152343.332031.261719.472656l1.542968 2.011718-2.320312 1.03125c-4.574219 2.035157-9.175782 4.152344-13.683594 6.289063l-2.472656 1.171875zm0 0" fill="#939baa" data-original="#939baa"></path><path d="m161.863281 291c-1.332031-5.683594-3.777343-10.933594-7.265625-15.601562l-1.234375-1.652344 1.691407-1.183594c4.144531-2.894531 8.546874-6.019531 13.859374-9.835938l1.5625-1.121093 1.183594 1.519531c4.480469 5.757812 7.207032 12.925781 7.691406 20.191406l.015626.082032.003906.234374v1.242188l-1.117188.550781c-4.3125 2.125-8.859375 4.441407-13.511718 6.886719l-2.289063 1.203125zm0 0" fill="#939baa" data-original="#939baa"></path><path d="m143.554688 301.042969c-1.226563-4.734375-3.867188-9.191407-7.433594-12.542969l-1.824219-1.714844 2.074219-1.402344c4.597656-3.101562 8.617187-5.839843 12.28125-8.375l1.574218-1.089843 1.15625 1.523437c3.6875 4.84375 6.1875 10.570313 7.238282 16.566406l.25 1.414063-1.265625.6875c-4.292969 2.328125-7.828125 4.289063-11.121094 6.167969l-2.273437 1.296875zm0 0" fill="#939baa" data-original="#939baa"></path><path d="m127.617188 310.957031c-.132813-.351562-.304688-.613281-.535157-.796875-3.648437-3.09375-6.351562-7.113281-7.839843-11.644531l-.480469-1.457031 1.28125-.839844c3.257812-2.132812 6.453125-4.230469 9.640625-6.34375l1.199218-.796875 1.136719.886719c4.507813 3.511718 7.550781 8.769531 8.34375 14.417968l.183594 1.316407-1.738281 1.027343c-2.472656 1.457032-5.367188 3.207032-8.167969 5.171876l-2.121094 1.488281zm0 0" fill="#939baa" data-original="#939baa"></path></g><path xmlns="http://www.w3.org/2000/svg" d="m395.132812 102.363281c20.128907 0 41.417969-9.269531 56.902344-25.652343 16.140625-17.078126 27.011719-41.355469 32.308594-72.152344.207031-1.199219-.160156-2.425782-.988281-3.316406-.832031-.890626-2.03125-1.347657-3.242188-1.2226568l-44.285156 4.4335938c-17.914063 1.792969-40.210937 4.027344-57.503906 15.777344-17.632813 11.980469-28.332031 33.769531-27.324219 55.050781-5.222656 1.40625-9.859375 4.332031-13.574219 6.679688-12.332031 7.800781-24.140625 15.140624-35.5625 22.238281-10.414062 6.476562-21.175781 13.167969-32.347656 20.214843-.511719-2.882812-1.164063-5.863281-1.960937-8.945312-2.140626-8.273438-6.140626-19.933594-16.125-25.632812-9.765626-5.578126-23.488282-3.492188-32.636719 4.953124-7.484375 6.914063-12.0625 17.527344-12.886719 29.890626-.5 7.507812.324219 14.882812 1.515625 22.105468-.191406-.179687-.378906-.363281-.574219-.539062-9.238281-8.277344-20.039062-11.8125-29.640625-9.695313-9.347656 2.0625-17.558593 9.625-21.972656 20.230469-3.359375 8.082031-4.304687 16.820312-4.910156 24.828125-2.914063-.988281-5.90625-1.453125-8.914063-1.304687-8.378906.417968-16.714844 5.667968-22.300781 14.039062-4.667969 6.992188-7.066406 15.21875-9.15625 22.539062-.675781-.0625-1.351563-.097656-2.023437-.097656-.03125 0-.066407 0-.097657 0-8.527343.039063-15.230469 5.351563-18.394531 14.570313-2.53125 7.375-2.082031 17.042969.761719 25.53125-35.707031 28.160156-66.683594 63.671875-89.664063 102.878906-.878906 1.496094-.660156 3.394531.535156 4.652344.753907.796875 1.785157 1.214843 2.828126 1.214843.609374 0 1.222656-.140624 1.789062-.433593 37.191406-19.21875 73.492188-40.238281 108.761719-62.960938 1.910156 4.746094 4.964843 9.027344 8.878906 12.332031.121094.101563.253906.183594.386719.269532-3.03125 2.757812-5.6875 5.886718-7.65625 9.605468-5.164063 9.730469-4.402344 21.066407-3.285156 30.925782 2.582031 22.71875 8.457031 55.566406 29.640624 78.492187 9.429688 10.203125 21.625 18.09375 35.527344 23.242188l-1.199218 33.789062c-.121094 3.40625-.289063 8.066407 2.015624 12.097657 4.6875 8.183593 15.855469 8.261718 20.625 8.296874l99.769532.707032c.277344.003906.558594.003906.835937.003906 6.320313 0 13.273438-.589844 17.867188-5.757812 4.640625-5.222657 4.34375-12.382813 3.707031-18.683594l-5.296875-52.203125c-.050781-.472657-.191406-.910157-.390625-1.3125 9.242188-5.726563 17.957031-12.84375 24.425781-22.234375 5.464844-7.929688 8.707031-17.523438 9.132813-27.003906.425781-9.53125-1.976563-18.105469-6.949219-24.964844 7.914063-12.570313 11.839844-28.109375 10.859375-43.617188-.691406-10.96875-3.789062-20.765625-8.953125-28.332031-.382813-.5625-.789063-1.136719-1.226563-1.722656.09375-.179688.175782-.367188.242188-.566407 3.582031-10.878906 3.835938-23.359374.757812-37.101562-2.59375-11.582031-7.160156-22.539062-11.640624-33.136719 2.859374-2.613281 4.226562-5.878906 5.882812-9.859375l.25-.597656c4.742188-11.375 9.472656-22.753906 14.203125-34.132812l6.898437-16.59375c3.277344-7.871094 6.019532-15.589844 3.667969-23.5-1.292969-4.339844-4.167969-8.132813-7.992187-10.9375l25.003906-19.144532c4.757812 1.183594 9.6875 1.765625 14.695312 1.765625zm41.472657-90.152343 39.121093-3.914063c-5.300781 26.847656-15.167968 48.046875-29.355468 63.058594-2.265625 2.398437-4.664063 4.625-7.171875 6.675781-4.632813-1.324219-8.476563-5.125-9.820313-9.757812-1.367187-4.71875-.097656-10.09375 3.238282-13.699219.746093-.804688 1.628906-1.574219 2.5625-2.386719 1.25-1.089844 2.542968-2.214844 3.730468-3.605469 3.117188-3.664062 4.15625-8.058593 2.777344-11.75-2.472656-6.609375-10.796875-7.785156-17.375-5.539062-.933594.316406-1.871094.675781-2.816406 1.039062-3.15625 1.214844-6.136719 2.359375-8.46875 1.605469-2.835938-.917969-4.261719-4.863281-3.953125-7.992188.367187-3.710937 2.441406-7.410156 4.476562-10.765624 7.761719-1.425782 15.613281-2.222657 23.054688-2.96875zm-53.902344 14.46875c6.320313-4.292969 13.398437-7.167969 20.769531-9.207032-1.058594 2.390625-1.886718 4.964844-2.15625 7.707032-.828125 8.375 4.058594 14.476562 9.316406 16.175781 4.949219 1.601562 9.574219-.175781 13.65625-1.742188.855469-.328125 1.703126-.65625 2.542969-.941406 2.960938-1.011719 6.90625-.84375 7.550781.886719.355469.945312-.226562 2.578125-1.410156 3.96875-.808594.949218-1.828125 1.839844-2.910156 2.78125-1.050781.914062-2.136719 1.859375-3.164062 2.972656-5.15625 5.566406-7.121094 13.875-5.007813 21.164062 1.554687 5.355469 5.273437 9.992188 10.046875 12.847657-15.894531 10.171875-34.679688 13.886719-50.851562 9.417969-4.460938-7.828126-11.359376-17.050782-22.023438-18.15625-.101562-.011719-.195312-.011719-.292969-.019532-.753906-18.523437 8.589844-37.429687 23.933594-47.855468zm-169.019531 98.515624c.691406-10.359374 4.382812-19.125 10.398437-24.679687 6.609375-6.101563 16.703125-7.78125 23.480469-3.910156 5.648438 3.226562 9.605469 9.839843 12.441406 20.816406 3.007813 11.621094 3.820313 21.515625 2.492188 30.253906-1.582032 10.421875-6.53125 19.550781-13.578125 25.050781-7.585938 5.921876-17.835938 7.464844-25.683594 3.933594-.824219-6.777344-3.273437-13.433594-7.089844-19.453125.527344-.8125.761719-1.816406.570313-2.839843-1.808594-9.585938-3.675782-19.496094-3.03125-29.171876zm-55.808594 60.105469c.582031-8.222656 1.238281-17.546875 4.558594-25.527343 3.4375-8.261719 9.585937-14.097657 16.449218-15.609376 7.019532-1.550781 15.527344 1.398438 22.761719 7.882813 8.429688 7.554687 13.558594 17.757813 14.074219 27.996094.542969 10.792969-4.417969 21.460937-12.632812 27.171875-8.585938 5.96875-20.578126 6.101562-28.515626.320312-.210937-.15625-.429687-.28125-.660156-.386718-.765625-2.03125-1.738281-4.128907-2.929687-6.304688-3.617188-6.625-8.140625-11.835938-13.136719-15.363281.007812-.058594.027344-.117188.03125-.179688zm-32.28125 13.371094c4.222656-6.328125 10.28125-10.285156 16.207031-10.582031 9.5625-.476563 17.808594 8.207031 22.339844 16.496094 3.566406 6.523437 4.792969 11.914062 3.75 16.476562-1.554687 6.804688-8.074219 11.175781-13.660156 12.996094-6.226563 2.03125-13.078125 2.070312-19.820313 1.90625-3.121094-7.617188-9.621094-13.960938-16.917968-17.082032 2.007812-7.035156 4.128906-14.257812 8.101562-20.210937zm-28.78125 35.214844c2.109375-6.152344 5.832031-9.285157 11.058594-9.308594h.058594c7.726562 0 16.710937 6.964844 19.636718 15.242187 2.539063 7.183594 2.742188 14.183594.566406 19.714844-2.367187 6.023438-8.117187 10.386719-13.675781 10.386719-.007812 0-.015625 0-.023437 0-5.023438-.007813-9.34375-2.496094-12.832032-7.394531-5.53125-7.761719-7.636718-20.34375-4.789062-28.640625zm31.542969 74.722656c-3.335938-2.816406-5.855469-6.574219-7.210938-10.71875 3.222657-2.105469 6.4375-4.222656 9.640625-6.355469 4.085938 3.1875 6.878906 8 7.597656 13.128906-.203124.117188-.40625.230469-.605468.347657-2.789063 1.648437-5.601563 3.367187-8.285156 5.25-.226563-.621094-.59375-1.199219-1.136719-1.652344zm187.960937-40.800781c-.003906.011718-.003906.019531-.007812.027344-1.105469-.375-2.242188-.742188-3.429688-1.09375-4.035156-11.628907-4.328125-27.824219-.890625-39.433594 8.597657 11.242187 10.496094 27.757812 4.328125 40.5zm-12.226562-3.230469c-3.765625-.773437-7.875-1.421875-12.359375-1.929687-.035157-.191407-.070313-.386719-.136719-.578126-4.234375-12.464843-2.933594-26.765624 3.480469-38.265624 1.105469.171874 2.207031.308593 3.289062.371093.941407.058594 1.890625.085938 2.855469.085938 1.179688 0 2.382812-.058594 3.597656-.140625-3.734375 11.792968-3.992187 27.597656-.726562 40.457031zm-20.695313-2.648437c-3.773437-.175782-7.308593-.054688-10.652343.632812.132812-.566406.160156-1.167969.015624-1.769531-3.347656-14.453125-.496093-30.289063 7.597657-42.71875 2.179687 1.503906 4.546875 2.730469 6.996093 3.679687-6.242187 12.253906-7.6875 26.9375-3.957031 40.175782zm-13.078125-56.890626c.949219 2.910157 2.410156 5.464844 4.21875 7.695313-2.382812 3.496094-4.402344 7.234375-6.019531 11.148437-6.191406-7.351562-10.335937-16.449218-11.761719-25.949218-.0625-.40625-.199218-.773438-.371094-1.125 4.75-4.042969 9.472657-8.125 14.167969-12.234375-.164062.75-.320312 1.496093-.46875 2.25-.988281 5.109375-1.855469 11.796875.234375 18.214843zm-20.648437-2.550781c2.296875 10.882813 7.664062 21.140625 15.347656 29.179688.214844.226562.453125.410156.707031.574219-1.445312 5.53125-2.171875 11.25-2.121094 16.957031-4.707031 1.46875-9.394531 2.984375-14.0625 4.566406-.050781-.261719-.128906-.527344-.238281-.785156-5.835937-13.777344-8.445312-28.957031-7.550781-43.894531 2.648438-2.191407 5.285156-4.390626 7.917969-6.597657zm-15.875 13.121094c.105469 13.835937 2.9375 27.679687 8.332031 40.414063.039062.09375.09375.179687.140625.269531-4.339844 1.535156-8.65625 3.125-12.953125 4.757812-.496094-11.621093-4.429688-23.1875-11.148438-32.671875-.039062-.050781-.085937-.09375-.128906-.144531 5.285156-4.167969 10.539063-8.375 15.757813-12.625zm-21.886719 17.429687c5.953125 8.46875 9.382812 18.816407 9.65625 29.164063.015625.605469.179688 1.167969.441406 1.671875-5.535156 2.1875-11.035156 4.457031-16.503906 6.804688-.035156-.199219-.074219-.398438-.144531-.597657-3.25-9.171875-4.511719-19.148437-3.640625-28.839843.011718-.113282-.003906-.222657-.003906-.332032 3.410156-2.605468 6.808593-5.230468 10.195312-7.871094zm-18.25 13.980469c-.027344 8.714844 1.445312 17.476563 4.347656 25.667969.136719.378906.324219.71875.554688 1.027344-4.601563 2.046875-9.179688 4.144531-13.730469 6.308594-1-7.328126-3.925781-14.363282-8.425781-20.238282 5.785156-4.207031 11.535156-8.464844 17.253906-12.765625zm-23.570312 17.328125c4.261718 5.496094 6.832031 12.257813 7.273437 19.203125 0 .03125.007813.054688.011719.082031-4.550782 2.242188-9.070313 4.546876-13.558594 6.902344-1.390625-5.914062-3.980469-11.476562-7.617188-16.335937 4.652344-3.25 9.28125-6.539063 13.890626-9.851563zm-20.292969 14.304688c3.5 4.601562 5.859375 9.984375 6.859375 15.703125-3.738282 2.027343-7.464844 4.078125-11.160156 6.1875-1.332032-5.128907-4.140626-9.871094-8-13.503907 4.117187-2.773437 8.214843-5.566406 12.300781-8.386718zm35.734375 220.464844c-1.113282-1.941407-1.113282-4.632813-.996094-7.945313l1.121094-31.542969c4.402344 1.257813 8.941406 2.253906 13.59375 2.984375-1.902344 13.6875-.671875 27.753907 3.570312 40.902344l-3.378906-.023437c-5.332031-.035157-11.734375-.566407-13.910156-4.375zm105.242187-52.34375c5.136719 18.304687 6.050781 37.808593 2.613281 56.503906-.054687.296875-.066406.59375-.054687.882812l-10.683594-.078125c-.003906-.328125-.039062-.664062-.136719-.996093-2.011718-6.953126-1.992187-14.414063-1.972656-22.3125.027344-9.527344.039063-19.34375-3.78125-28.371094 4.589844-1.691406 9.253906-3.5625 14.015625-5.628906zm-21.378906 8.210937c3.390625 7.664063 3.375 16.476563 3.351563 25.769531-.023438 7.6875-.015626 15.621094 1.964843 23.273438l-20.578125-.148438c9.457032-13.09375 12.066406-30.988281 6.394532-46.164062 2.921874-.824219 5.878906-1.742188 8.867187-2.730469zm-16.394531 4.683594c.042968.199219.085937.394531.160156.589843 5.386719 14.191407 2.132812 31.25-8.105469 42.457032-.300781.332031-.519531.707031-.6875 1.097656l-10.773437-.078125c4.230468-13.21875 3.085937-27.878906-3.035156-40.296875 7.277343-.671875 14.746093-1.933594 22.441406-3.769531zm-30.996094 4.3125c6.769531 11.488281 8.21875 25.78125 3.851562 38.390625-.152343.433594-.203124.875-.199218 1.308594l-14.683594-.105469c-.035156-.261719-.09375-.527344-.183594-.785157-4.34375-12.546874-5.644531-26.078124-3.800781-39.226562 3.554687.320312 7.164063.484375 10.8125.488281h.082031c1.367188 0 2.742188-.027343 4.121094-.070312zm91.804688 24.367187c.492187 4.863282.765624 9.855469-1.777344 12.714844-2.285156 2.574219-6.628906 3.066406-10.894532 3.132812 3.613282-20.097656 2.523438-41.050781-3.171874-60.65625 3.535156-1.648437 7.148437-3.410156 10.753906-5.355468zm20.074218-80.960937c-9.820312 14.265625-25.953125 22.996093-40.4375 29.65625-.285156.132812-.566406.253906-.851562.382812l-16.089844-32.367187c-.957031-1.929688-3.296875-2.714844-5.222656-1.757813-1.929688.960938-2.714844 3.300781-1.757813 5.226563l15.925781 32.039062c-24.835937 10.535156-47.011718 15.6875-67.566406 15.6875-.023437 0-.054687 0-.078125 0-8.867187-.003906-17.46875-1.023437-25.601562-2.960937l62-27.449219c.964843-.425781 1.714843-1.222656 2.078125-2.210938.367187-.984374.316406-2.078124-.136719-3.03125l-7.648437-16.046874c4.976562-4.230469 7.128906-11.59375 4.621093-17.726563-2.292969-5.609375-7.015625-9.191406-12.957031-9.828125-6.144531-.667969-12.222656 1.96875-15.484375 6.707031-3.085937 4.480469-3.210937 10.03125-.351563 15.628907v.003906c2.753907 5.394531 8.699219 8.691406 14.613282 8.691406.832031 0 1.65625-.078125 2.476562-.210938l5.96875 12.519532-64.730468 28.652344c-.550782.246093-1.003907.605468-1.371094 1.035156-13.015625-4.71875-24.402344-12.003906-33.136719-21.457032-4.574219-4.949218-10.023437-11.945312-15-23.011718l26.925781-9.90625 13.933594 31.226562c.644531 1.449219 2.070312 2.308594 3.5625 2.308594.527344 0 1.066406-.109375 1.585938-.339844 1.964843-.875 2.847656-3.179687 1.96875-5.144531l-15.417969-34.554687c-.835938-1.875-2.980469-2.78125-4.90625-2.070313l-30.601563 11.261719c-2.625-7.09375-5.019531-15.574219-6.960937-25.777344l53.996093-22.683594 8.6875 22.394532c-3.421874 1.972656-6.171874 4.945312-7.671874 8.59375-2.722657 6.621093-.558594 14.742187 5.148437 19.308593 3.101563 2.480469 7.101563 3.757813 11.128906 3.757813 2.96875 0 5.957031-.695313 8.601563-2.117188 6.980468-3.753906 10.90625-12.253906 9.136718-19.773437-1.660156-7.039063-7.308593-11.777344-14.746093-12.371094-1.421875-.113281-2.824219-.0625-4.195313.117187l-10.269531-26.464843c-.382813-.980469-1.144531-1.769531-2.113281-2.179688-.96875-.410156-2.0625-.414062-3.03125-.003906l-56.019532 23.53125c-.5-3.242187-.957031-6.617187-1.359374-10.179687-.289063-2.535157-.550782-5.179688-.679688-7.84375l49.285156-21.390626c1.976563-.859374 2.882813-3.152343 2.023438-5.128906-.855469-1.972656-3.152344-2.878906-5.125-2.023437l-45.96875 19.953125c.402344-3.519532 1.265625-6.910156 2.886718-9.960938 3.765626-7.097656 11.039063-11.792968 18.792969-16.367187 38.570313-22.753907 79.75-41.085938 122.460938-54.542969.246093 1.800781.554687 3.59375.964843 5.363281.203126.875.691407 1.613281 1.339844 2.140625-4.570312 2.261719-8.800781 6.132813-12.832031 12.507813-7.324219 11.574219-12.527344 23.054687-15.464844 34.113281-.921875 3.46875-1.582031 6.941406-2.03125 10.390625l-27.394531 12.550781c-1.503906.6875-2.148438.808594-2.410156.8125-.238282-.308594-.582032-1.085937-.738282-1.441406l-9.671874-21.941406c-.867188-1.96875-3.167969-2.863282-5.136719-1.996094s-2.863281 3.167969-1.996094 5.140625l9.671875 21.941406c.613281 1.390625 1.636719 3.71875 3.957031 5.070313 1.277344.75 2.601563 1.019531 3.855469 1.019531 2.40625 0 4.566406-.992187 5.71875-1.519531l23.484375-10.757813c-.203125 14.171875 3.621094 27.429688 11.140625 37.488281 9.992188 13.363282 26.582031 21.402344 43.820312 21.402344.941407 0 1.882813-.023437 2.824219-.070312 16.726563-.855469 33.15625-9.363282 44.289063-22.820313 7.289062 12.480469 3.90625 29.746094-3.710938 40.804688zm-92.203125-7.675781c-3.628906 1.515624-8.589843-.347657-10.414062-3.917969-1.058594-2.074219-1.945313-5.085938-.167969-7.664063 1.609375-2.339844 4.988281-3.730468 8.226562-3.378906 1.765626.1875 4.96875 1.09375 6.578126 5.027344 1.464843 3.582031-.585938 8.410156-4.222657 9.933594zm-44.78125-22.265626c1.921875.152344 6.523438 1.082032 7.773438 6.386719.976562 4.132813-1.328125 9.015625-5.238281 11.117188-3.496094 1.878906-8.195313 1.515625-11.167969-.863281-2.964844-2.371094-4.199219-6.875-2.808594-10.253907 1.90625-4.640625 7.207031-6.734375 11.441406-6.386719zm148.667969-60.730468c1.011719 15.96875-3.753906 31.9375-13.070312 43.804687-9.765626 12.441407-24.566407 20.328125-39.589844 21.097657-15.433594.78125-31.140625-6.363282-40.003906-18.214844-9.453126-12.644532-12.128907-31.367188-7.15625-50.089844 2.734374-10.292969 7.617187-21.039062 14.515624-31.941406 7.628907-12.058594 14.820313-12.648438 29.417969-11.109375 16.671875 1.753906 37.226563 5.84375 48.277344 22.027343 4.375 6.40625 7.007813 14.851563 7.609375 24.425782zm-8.503906-37.28125c-3.355469-3.027344-7.703125-6.042969-13.496094-8.71875 7.378906-15.753906 4.910156-35.34375-5.941406-48.867188 2.601562-.710937 5.289062-1.566406 8.082031-2.597656 4.226563 10.015625 8.480469 20.347656 10.855469 30.957031 2.410156 10.765625 2.574218 20.578125.5 29.226563zm15.503906-128.25-6.902344 16.601562c-4.726562 11.375-9.457031 22.75-14.199218 34.121094l-.253907.605469c-2.410156 5.792969-3.136719 7.542969-7.871093 9.308593-9.410157 3.507813-17.429688 5.003907-24.503907 4.574219-8.164062-.496093-18.25-5.015625-21.101562-13.773437-1.539063-4.714844-.804688-10.128906.003906-14.316406 4.753906-24.5625 20.472656-46.785157 42.054687-59.441407 7.367188-4.320312 13.800782-6.433593 19.617188-6.433593.433594 0 .867188.011718 1.292969.035156 6.136719.339844 13.347656 4.035156 15.253906 10.441406 1.625 5.453125-.675781 11.757812-3.390625 18.277344zm-4.894531-35.316406c-2.085938-.644532-4.277344-1.0625-6.539063-1.183594-7.734375-.421875-16.003906 2.011718-25.285156 7.457031-18.53125 10.871094-33.085938 28.222656-40.945312 48.195313-79.460938 70.90625-166.964844 131.882812-260.285157 181.390624 21.210938-33.070312 48.226563-63.046874 78.863281-87.488281.558594.976563 1.144532 1.925781 1.777344 2.816407 4.960938 6.960937 11.589844 10.652343 19.167969 10.664062h.035156c8.777344 0 17.378907-6.296875 20.933594-15.332031 2.15625-5.484375 2.589844-11.917969 1.316406-18.589844.632813.007813 1.257813.023437 1.898438.023437 5.914062-.003906 12.125-.417968 18.046875-2.351562 9.710937-3.167969 16.929687-10.324219 18.839844-18.671875.414062-1.816406.589843-3.6875.539062-5.617187 3.84375 1.5625 8.035156 2.355468 12.269531 2.355468 6.734375 0 13.566407-1.976562 19.234375-5.914062 8.988282-6.25 14.882813-17.085938 15.867188-28.59375 2.832031.855468 5.816406 1.28125 8.847656 1.28125 7.484375 0 15.210938-2.554688 21.464844-7.4375 8.601562-6.710938 14.613281-17.652344 16.492187-30.023438.757813-4.992187.902344-10.273437.433594-15.925781 12.25-7.75 23.988281-15.046875 35.339844-22.101563 11.433593-7.105468 23.257812-14.453124 35.613281-22.269531 5.925781-3.746093 11.253906-6.804687 16.664062-6.242187 6.917969.71875 12.058594 7.417968 15.617188 13.496094zm0 0" fill="#231f20" data-original="#231f20" class=""></path><path xmlns="http://www.w3.org/2000/svg" d="m495.015625 149.957031c-.332031-6.328125-2.238281-12.183593-4.082031-17.851562-2-6.144531-3.933594-12.511719-5.804688-18.667969-3.96875-13.066406-8.078125-26.574219-13.207031-39.367188-.566406-1.414062-1.902344-2.367187-3.421875-2.445312-1.519531-.074219-2.945312.742188-3.648438 2.089844-4.632812 8.867187-6.753906 18.167968-8.808593 27.164062-1.085938 4.773438-2.210938 9.707032-3.695313 14.453125-.410156 1.316407-.839844 2.652344-1.273437 4.003907-4.910157 15.25-11.019531 34.226562 3.574219 48.835937 4.691406 4.703125 11.527343 7.464844 18.402343 7.464844.214844 0 .429688-.003907.644531-.007813 6.160157-.15625 11.625-2.53125 15.378907-6.695312 4.226562-4.683594 6.335937-11.421875 5.941406-18.976563zm-11.726563 13.753907c-2.308593 2.558593-5.785156 4.023437-9.789062 4.125-4.9375.121093-10.027344-1.859376-13.335938-5.171876 0-.003906 0-.003906 0-.003906-11.230468-11.242187-6.371093-26.335937-1.671874-40.9375.445312-1.371094.878906-2.726562 1.296874-4.066406 1.574219-5.039062 2.734376-10.125 3.859376-15.042969 1.3125-5.761719 2.578124-11.3125 4.4375-16.675781 3.515624 9.789062 6.585937 19.90625 9.582031 29.765625 1.882812 6.191406 3.828125 12.59375 5.851562 18.8125 1.6875 5.1875 3.429688 10.546875 3.710938 15.847656.28125 5.394531-1.15625 10.257813-3.941407 13.347657zm0 0" fill="#231f20" data-original="#231f20" class=""></path></g></svg>